# xmcd CD database file
# Copyright 1993-1996 (C) Ti Kan
#
# Track frame offsets:
#    150
#    12457
#    14502
#    31607
#    51167
#    67062
#    97825
#    108977
#    130572
#    145092
#    163115
#    183837
#    188467
#    193377
#    201387
#    207710
#    216322
#    221445
#    226855
#    235337
#    237930
#    240100
#    244007
#    251145
#
# Disc length: 3433 seconds
#
# Revision: 1
# Processed by: cddbd v1.4b41PL1 Copyright (c) Steve Scherf et al.
# Submitted via: MyCDplayer 2.1.9  (wjohn@fix.net)
#
DISCID=530d6718
DTITLE=Stevie Ray Vaughan - Interchords
DYEAR=1900
DGENRE=
TTITLE0=Putting "The Sky Is Crying" together
TTITLE1=Any additional production?
TTITLE2=The Sky Is Crying
TTITLE3=Boot Hill
TTITLE4=Empty Arms
TTITLE5=Little Wing
TTITLE6=Wham
TTITLE7=May I Have A Little Talk With You
TTITLE8=Close To You
TTITLE9=Chitlins Con Carne
TTITLE10=Life By The Drop
TTITLE11=Jimmie's favorite songs on "The Sky Is Crying
TTITLE12=Any more Stevie Ray Vaughan material?
TTITLE13=Stevie Ray Vaughan the perfectionist
TTITLE14=How Stevie progresses as a guitarist
TTITLE15=First time they heard Stevie Ray Vaughan
TTITLE16=Beginnings of Double Trouble
TTITLE17=Montreaux Jazz Festival
TTITLE18=David Bowie tour
TTITLE19=Fire and the Fury tour with Jeff Beck
TTITLE20=Stevie Ray's death
TTITLE21=SRV:Learned guitar from brother Jimmie
TTITLE22=SRV:On Hendrix
TTITLE23=SRV:The Blues
EXTD=
EXTT0=
EXTT1=
EXTT2=
EXTT3=
EXTT4=
EXTT5=
EXTT6=
EXTT7=
EXTT8=
EXTT9=
EXTT10=
EXTT11=
EXTT12=
EXTT13=
EXTT14=
EXTT15=
EXTT16=
EXTT17=
EXTT18=
EXTT19=
EXTT20=
EXTT21=
EXTT22=
EXTT23=
PLAYORDER=
